<svg id="visual" viewBox="0 0 3840 1440" width="3840" height="1440" xmlns="http://www.w3.org/2000/svg" xmlns:xlink="http://www.w3.org/1999/xlink" version="1.1"><rect x="0" y="0" width="3840" height="1440" fill="#001220"></rect><defs><linearGradient id="grad1_0" x1="62.5%" y1="100%" x2="100%" y2="0%"><stop offset="-3.333333333333332%" stop-color="#2b2b32" stop-opacity="1"></stop><stop offset="103.33333333333334%" stop-color="#2b2b32" stop-opacity="1"></stop></linearGradient></defs><defs><linearGradient id="grad1_1" x1="62.5%" y1="100%" x2="100%" y2="0%"><stop offset="-3.333333333333332%" stop-color="#2b2b32" stop-opacity="1"></stop><stop offset="103.33333333333334%" stop-color="#25272f" stop-opacity="1"></stop></linearGradient></defs><defs><linearGradient id="grad1_2" x1="62.5%" y1="100%" x2="100%" y2="0%"><stop offset="-3.333333333333332%" stop-color="#1f222c" stop-opacity="1"></stop><stop offset="103.33333333333334%" stop-color="#25272f" stop-opacity="1"></stop></linearGradient></defs><defs><linearGradient id="grad1_3" x1="62.5%" y1="100%" x2="100%" y2="0%"><stop offset="-3.333333333333332%" stop-color="#1f222c" stop-opacity="1"></stop><stop offset="103.33333333333334%" stop-color="#191e29" stop-opacity="1"></stop></linearGradient></defs><defs><linearGradient id="grad1_4" x1="62.5%" y1="100%" x2="100%" y2="0%"><stop offset="-3.333333333333332%" stop-color="#121a26" stop-opacity="1"></stop><stop offset="103.33333333333334%" stop-color="#191e29" stop-opacity="1"></stop></linearGradient></defs><defs><linearGradient id="grad1_5" x1="62.5%" y1="100%" x2="100%" y2="0%"><stop offset="-3.333333333333332%" stop-color="#121a26" stop-opacity="1"></stop><stop offset="103.33333333333334%" stop-color="#0a1623" stop-opacity="1"></stop></linearGradient></defs><defs><linearGradient id="grad1_6" x1="62.5%" y1="100%" x2="100%" y2="0%"><stop offset="-3.333333333333332%" stop-color="#001220" stop-opacity="1"></stop><stop offset="103.33333333333334%" stop-color="#0a1623" stop-opacity="1"></stop></linearGradient></defs><defs><linearGradient id="grad2_0" x1="0%" y1="100%" x2="37.5%" y2="0%"><stop offset="-3.333333333333332%" stop-color="#2b2b32" stop-opacity="1"></stop><stop offset="103.33333333333334%" stop-color="#2b2b32" stop-opacity="1"></stop></linearGradient></defs><defs><linearGradient id="grad2_1" x1="0%" y1="100%" x2="37.5%" y2="0%"><stop offset="-3.333333333333332%" stop-color="#25272f" stop-opacity="1"></stop><stop offset="103.33333333333334%" stop-color="#2b2b32" stop-opacity="1"></stop></linearGradient></defs><defs><linearGradient id="grad2_2" x1="0%" y1="100%" x2="37.5%" y2="0%"><stop offset="-3.333333333333332%" stop-color="#25272f" stop-opacity="1"></stop><stop offset="103.33333333333334%" stop-color="#1f222c" stop-opacity="1"></stop></linearGradient></defs><defs><linearGradient id="grad2_3" x1="0%" y1="100%" x2="37.5%" y2="0%"><stop offset="-3.333333333333332%" stop-color="#191e29" stop-opacity="1"></stop><stop offset="103.33333333333334%" stop-color="#1f222c" stop-opacity="1"></stop></linearGradient></defs><defs><linearGradient id="grad2_4" x1="0%" y1="100%" x2="37.5%" y2="0%"><stop offset="-3.333333333333332%" stop-color="#191e29" stop-opacity="1"></stop><stop offset="103.33333333333334%" stop-color="#121a26" stop-opacity="1"></stop></linearGradient></defs><defs><linearGradient id="grad2_5" x1="0%" y1="100%" x2="37.5%" y2="0%"><stop offset="-3.333333333333332%" stop-color="#0a1623" stop-opacity="1"></stop><stop offset="103.33333333333334%" stop-color="#121a26" stop-opacity="1"></stop></linearGradient></defs><defs><linearGradient id="grad2_6" x1="0%" y1="100%" x2="37.5%" y2="0%"><stop offset="-3.333333333333332%" stop-color="#0a1623" stop-opacity="1"></stop><stop offset="103.33333333333334%" stop-color="#001220" stop-opacity="1"></stop></linearGradient></defs><g transform="translate(3840, 1440)"><path d="M-1152 0C-1023.6 -87.1 -895.1 -174.1 -841.7 -273.5C-788.2 -372.8 -809.8 -484.4 -771 -560.2C-732.2 -635.9 -633.1 -675.9 -561.3 -772.6C-489.5 -869.4 -445 -1022.9 -356 -1095.6C-267 -1168.3 -133.5 -1160.2 0 -1152L0 0Z" fill="#051422"></path><path d="M-987.4 0C-877.3 -74.6 -767.3 -149.3 -721.4 -234.4C-675.6 -319.6 -694.1 -415.2 -660.9 -480.1C-627.6 -545.1 -542.7 -579.3 -481.1 -662.2C-419.6 -745.2 -381.4 -876.8 -305.1 -939.1C-228.8 -1001.4 -114.4 -994.4 0 -987.4L0 0Z" fill="#0f1825"></path><path d="M-822.9 0C-731.1 -62.2 -639.4 -124.4 -601.2 -195.3C-563 -266.3 -578.4 -346 -550.7 -400.1C-523 -454.2 -452.2 -482.8 -401 -551.9C-349.7 -621 -317.9 -730.7 -254.3 -782.6C-190.7 -834.5 -95.3 -828.7 0 -822.9L0 0Z" fill="#161c28"></path><path d="M-658.3 0C-584.9 -49.8 -511.5 -99.5 -481 -156.3C-450.4 -213 -462.7 -276.8 -440.6 -320.1C-418.4 -363.4 -361.8 -386.2 -320.8 -441.5C-279.7 -496.8 -254.3 -584.5 -203.4 -626.1C-152.6 -667.6 -76.3 -662.9 0 -658.3L0 0Z" fill="#1c202b"></path><path d="M-493.7 0C-438.7 -37.3 -383.6 -74.6 -360.7 -117.2C-337.8 -159.8 -347 -207.6 -330.4 -240.1C-313.8 -272.5 -271.3 -289.7 -240.6 -331.1C-209.8 -372.6 -190.7 -438.4 -152.6 -469.6C-114.4 -500.7 -57.2 -497.2 0 -493.7L0 0Z" fill="#22242e"></path><path d="M-329.1 0C-292.4 -24.9 -255.8 -49.8 -240.5 -78.1C-225.2 -106.5 -231.4 -138.4 -220.3 -160C-209.2 -181.7 -180.9 -193.1 -160.4 -220.7C-139.9 -248.4 -127.1 -292.3 -101.7 -313C-76.3 -333.8 -38.1 -331.5 0 -329.1L0 0Z" fill="#282930"></path><path d="M-164.6 0C-146.2 -12.4 -127.9 -24.9 -120.2 -39.1C-112.6 -53.3 -115.7 -69.2 -110.1 -80C-104.6 -90.8 -90.4 -96.6 -80.2 -110.4C-69.9 -124.2 -63.6 -146.1 -50.9 -156.5C-38.1 -166.9 -19.1 -165.7 0 -164.6L0 0Z" fill="#2b2b32"></path></g><g transform="translate(0, 0)"><path d="M1152 0C1153.7 128.8 1155.4 257.6 1095.6 356C1035.8 454.4 914.6 522.5 818.7 594.8C722.9 667.2 652.4 743.8 566 779.1C479.7 814.4 377.6 808.3 280.6 863.6C183.6 918.8 91.8 1035.4 0 1152L0 0Z" fill="#051422"></path><path d="M987.4 0C988.9 110.4 990.3 220.8 939.1 305.1C887.9 389.5 783.9 447.8 701.8 509.9C619.6 571.9 559.2 637.5 485.2 667.8C411.2 698 323.6 692.8 240.5 740.2C157.4 787.6 78.7 887.5 0 987.4L0 0Z" fill="#0f1825"></path><path d="M822.9 0C824.1 92 825.3 184 782.6 254.3C739.9 324.6 653.3 373.2 584.8 424.9C516.3 476.6 466 531.3 404.3 556.5C342.7 581.7 269.7 577.4 200.4 616.8C131.1 656.3 65.6 739.6 0 822.9L0 0Z" fill="#161c28"></path><path d="M658.3 0C659.3 73.6 660.2 147.2 626.1 203.4C591.9 259.7 522.6 298.6 467.8 339.9C413.1 381.2 372.8 425 323.4 445.2C274.1 465.3 215.8 461.9 160.3 493.5C104.9 525 52.5 591.7 0 658.3L0 0Z" fill="#1c202b"></path><path d="M493.7 0C494.4 55.2 495.2 110.4 469.6 152.6C443.9 194.7 392 223.9 350.9 254.9C309.8 285.9 279.6 318.8 242.6 333.9C205.6 349 161.8 346.4 120.3 370.1C78.7 393.8 39.3 443.7 0 493.7L0 0Z" fill="#22242e"></path><path d="M329.1 0C329.6 36.8 330.1 73.6 313 101.7C296 129.8 261.3 149.3 233.9 170C206.5 190.6 186.4 212.5 161.7 222.6C137.1 232.7 107.9 230.9 80.2 246.7C52.5 262.5 26.2 295.8 0 329.1L0 0Z" fill="#282930"></path><path d="M164.6 0C164.8 18.4 165.1 36.8 156.5 50.9C148 64.9 130.7 74.6 117 85C103.3 95.3 93.2 106.3 80.9 111.3C68.5 116.3 53.9 115.5 40.1 123.4C26.2 131.3 13.1 147.9 0 164.6L0 0Z" fill="#2b2b32"></path></g></svg>